<svg width="87" height="86" viewBox="0 0 87 86" fill="none" xmlns="http://www.w3.org/2000/svg">
<path d="M34.5812 45.3677L26.3261 41.7236L0.0513713 49.113L3.16095 60.1699L29.4357 52.7805L34.5812 45.3677Z" fill="#FAE58B"/>
<path d="M23.5913 81.531L13.9743 75.0633L29.436 52.7806L38.1709 50.324L39.0432 59.2137L23.5913 81.531Z" fill="#FAE58B"/>
<path d="M50.6371 58.0409L44.1882 51.8009L39.0427 59.2136L41.6441 85.9615L53.2384 84.7888L50.6371 58.0409Z" fill="#FAE58B"/>
<path d="M78.2166 68.48L58.7901 49.7451L49.7555 49.1167L50.6278 58.0063L70.0446 76.7067L78.2166 68.48Z" fill="#FAE58B"/>
<path d="M85.9835 51.6797L58.7996 49.7797L52.3157 43.5495L59.6984 38.304L86.8822 40.204L85.9835 51.6797Z" fill="#FAE58B"/>
<path d="M59.6979 38.3039L50.6632 37.6755L52.9492 28.9789L75.1577 13.188L81.9064 22.513L59.6979 38.3039Z" fill="#FAE58B"/>
<path d="M52.9496 28.9789L59.7726 2.89898L48.5007 0.103337L41.6777 26.1833L45.5669 34.2244L52.9496 28.9789Z" fill="#FAE58B"/>
<path d="M41.6774 26.1833L29.9553 2.00049L19.4493 7.04313L31.1811 31.2605L39.4362 34.9046L41.6774 26.1833Z" fill="#FAE58B"/>
<path d="M31.1715 31.2259L6.36163 20.2689L1.51597 30.7667L26.3259 41.7237L35.0607 39.2671L31.1715 31.2259Z" fill="#FAE58B"/>
</svg>
